HIERARCHY
ROOT Hips
{
	OFFSET 0.000000 0.000000 0.000000 
	CHANNELS 6 Xposition Yposition Zposition Zrotation Yrotation Xrotation
	JOINT LeftUpLeg
	{
		OFFSET 1.363060 -1.794630 0.839290 
		CHANNELS 3 Zrotation Yrotation Xrotation
		JOINT LeftLeg
		{
			OFFSET 2.448110 -6.726130 0.000000 
			CHANNELS 3 Zrotation Yrotation Xrotation
			JOINT LeftFoot
			{
				OFFSET 2.562200 -7.039590 0.000000 
				CHANNELS 3 Zrotation Yrotation Xrotation
				JOINT LeftToeBase
				{
					OFFSET 0.157640 -0.433110 2.322550 
					CHANNELS 3 Zrotation Yrotation Xrotation
					End Site
					{
						OFFSET 0.000000 0.000000 0.000000 
					}
				}
			}
		}
	}
	JOINT RightUpLeg
	{
		OFFSET -1.305520 -1.794630 0.839290 
		CHANNELS 3 Zrotation Yrotation Xrotation
		JOINT RightLeg
		{
			OFFSET -2.542530 -6.985550 0.000000 
			CHANNELS 3 Zrotation Yrotation Xrotation
			JOINT RightFoot
			{
				OFFSET -2.568260 -7.056230 0.000000 
				CHANNELS 3 Zrotation Yrotation Xrotation
				JOINT RightToeBase
				{
					OFFSET -0.164730 -0.452590 2.363150 
					CHANNELS 3 Zrotation Yrotation Xrotation
					End Site
					{
						OFFSET 0.000000 0.000000 0.000000 
					}
				}
			}
		}
	}
	JOINT Spine
	{
		OFFSET 0.028270 2.035590 -0.193380 
		CHANNELS 3 Zrotation Yrotation Xrotation
		JOINT Spine1
		{
			OFFSET 0.056720 2.048850 -0.042750 
			CHANNELS 3 Zrotation Yrotation Xrotation
			JOINT Neck1
			{
				OFFSET -0.054170 1.746240 0.172020 
				CHANNELS 3 Zrotation Yrotation Xrotation
				JOINT Head
				{
					OFFSET 0.104070 1.761360 -0.123970 
					CHANNELS 3 Zrotation Yrotation Xrotation
					End Site
					{
						OFFSET 0.000000 0.000000 0.000000 
					}
				}
			}
			JOINT LeftArm
			{
				OFFSET 3.362410 1.200890 -0.311210 
				CHANNELS 3 Zrotation Yrotation Xrotation
				JOINT LeftForeArm
				{
					OFFSET 4.983000 -0.000000 -0.000000 
					CHANNELS 3 Zrotation Yrotation Xrotation
					JOINT LeftHand
					{
						OFFSET 3.483560 -0.000000 -0.000000 
						CHANNELS 3 Zrotation Yrotation Xrotation
						JOINT LeftHandIndex1
						{
							OFFSET 0.715260 -0.000000 -0.000000 
							CHANNELS 3 Zrotation Yrotation Xrotation
							End Site
							{
								OFFSET 0.000000 0.000000 0.000000 
							}
						}
					}
				}
			}
			JOINT RightArm
			{
				OFFSET -3.136600 1.374050 -0.404650 
				CHANNELS 3 Zrotation Yrotation Xrotation
				JOINT RightForeArm
				{
					OFFSET -5.241900 -0.000000 -0.000000 
					CHANNELS 3 Zrotation Yrotation Xrotation
					JOINT RightHand
					{
						OFFSET -3.444170 -0.000000 -0.000000 
						CHANNELS 3 Zrotation Yrotation Xrotation
						JOINT RightHandIndex1
						{
							OFFSET -0.622530 -0.000000 -0.000000 
							CHANNELS 3 Zrotation Yrotation Xrotation
							End Site
							{
								OFFSET 0.000000 0.000000 0.000000 
							}
						}
					}
				}
			}
		}
	}
}
MOTION
Frames: 18
Frame Time: 0.041667
-6.686860 17.801278 -4.089268 -61.804189 84.971247 -62.762401 -12.495195 0.016683 -22.152501 5.560810 15.174368 44.715818 -1.325424 7.245613 -0.514533 0.750000 -5.531400 -15.430700 30.623660 1.353575 -1.916756 -0.218917 -8.348281 22.961659 0.346695 -4.262788 -8.843910 -0.360800 -3.858800 10.679900 1.247066 -0.495929 -1.575999 -3.120915 -0.314134 2.071852 6.308754 -0.637628 11.559369 -0.028600 0.282700 5.522500 -75.463919 1.404898 23.111343 9.258491 -19.889382 -2.780565 -1.404799 -1.645942 -16.901394 -7.125000 0.000000 0.000000 76.536804 -2.736961 25.882155 -11.619069 23.381219 -3.437406 1.319844 0.332509 1.653225 7.125000 0.000000 0.000000 
-6.752644 17.801173 -4.090952 -62.053188 85.046264 -63.055115 -12.573045 0.035886 -21.734415 5.943343 15.486533 46.063780 -1.249645 6.941820 -0.664339 0.774400 -5.618700 -15.682100 30.579082 1.411992 -2.193083 -0.245457 -8.420043 23.150503 0.346427 -4.253856 -8.786195 -0.378100 -3.949100 10.933600 1.249352 -0.506745 -1.579847 -3.099436 -0.322079 2.073989 6.311053 -0.649518 11.563015 -0.027500 0.277000 5.523000 -75.512091 1.434798 22.963323 9.138787 -19.746187 -2.739013 -1.410558 -1.641170 -16.748060 -7.125000 0.000000 0.000000 76.519278 -2.820077 25.777996 -11.541994 23.297659 -3.410559 1.322927 0.330676 1.672070 7.125000 0.000000 0.000000 
-6.818113 17.801594 -4.092847 -62.182060 85.115612 -63.224571 -12.653856 0.094662 -21.277766 6.312869 15.772178 47.347667 -1.163073 6.592377 -0.764730 0.795400 -5.692700 -15.895300 30.529914 1.481358 -2.460506 -0.269631 -8.486530 23.324094 0.348304 -4.251037 -8.715918 -0.397500 -4.047900 11.211300 1.250856 -0.511603 -1.583125 -3.079033 -0.326956 2.077764 6.312460 -0.658237 11.557343 -0.027500 0.272100 5.516700 -75.557266 1.462011 22.814014 9.028321 -19.613794 -2.701311 -1.415941 -1.636863 -16.610473 -7.125000 0.000000 0.000000 76.505068 -2.900933 25.673441 -11.465983 23.214993 -3.383907 1.325385 0.328550 1.710019 7.125000 0.000000 0.000000 
-6.883056 17.802962 -4.095057 -62.131963 85.178122 -63.216332 -12.739400 0.196157 -20.775568 6.667105 16.030223 48.560476 -1.074440 6.230630 -0.829511 0.810500 -5.745000 -16.046400 30.475447 1.564091 -2.709262 -0.290120 -8.544961 23.473748 0.353090 -4.256774 -8.632721 -0.418200 -4.150700 11.501000 1.251238 -0.509763 -1.584902 -3.060278 -0.328447 2.087020 6.314356 -0.661780 11.544012 -0.028100 0.269300 5.504800 -75.596132 1.485088 22.669260 8.926976 -19.492600 -2.667227 -1.421074 -1.633600 -16.496898 -7.125000 0.000000 0.000000 76.496914 -2.975311 25.567765 -11.392295 23.134614 -3.358272 1.327683 0.328138 1.773058 7.125000 0.000000 0.000000 
-6.947682 17.805488 -4.097267 -61.983719 85.237835 -63.101816 -12.827841 0.338041 -20.236740 7.002155 16.260033 49.690111 -0.989781 5.879928 -0.848034 0.817300 -5.768700 -16.114800 30.417249 1.664243 -2.942692 -0.305083 -8.592122 23.590431 0.362398 -4.277729 -8.542862 -0.438200 -4.247500 11.774000 1.251039 -0.505385 -1.586301 -3.040372 -0.328520 2.101401 6.316891 -0.661394 11.527203 -0.028000 0.268000 5.491500 -75.631505 1.507445 22.531554 8.837646 -19.386277 -2.637903 -1.425961 -1.631661 -16.404877 -7.125000 0.000000 0.000000 76.492100 -3.040329 25.456881 -11.315667 23.049969 -3.331237 1.328820 0.325732 1.844089 7.125000 0.000000 0.000000 
-7.012309 17.809488 -4.099373 -61.831462 85.297306 -62.979229 -12.916870 0.513506 -19.658410 7.314023 16.460447 50.724317 -0.919401 5.581675 -0.811038 0.820200 -5.778600 -16.143300 30.358788 1.781148 -3.153438 -0.313227 -8.624732 23.664793 0.379497 -4.326493 -8.446396 -0.457000 -4.336600 12.025600 1.250591 -0.502659 -1.588336 -3.020259 -0.329553 2.111310 6.321043 -0.655004 11.503818 -0.026500 0.269200 5.472900 -75.662301 1.535253 22.403775 8.759753 -19.294362 -2.612773 -1.430514 -1.630273 -16.333747 -7.125000 0.000000 0.000000 76.494245 -3.100485 25.345661 -11.240676 22.966283 -3.304625 1.329630 0.324630 1.911404 7.125000 0.000000 0.000000 
-7.075778 17.815382 -4.102109 -61.478420 85.351879 -62.660575 -13.014155 0.736221 -19.021958 7.598299 16.629317 51.651651 -0.862919 5.336265 -0.724467 0.809900 -5.743000 -16.040700 30.289940 1.912200 -3.325213 -0.313487 -8.640628 23.690957 0.401372 -4.390904 -8.335651 -0.473800 -4.414700 12.246300 1.248709 -0.494573 -1.589307 -3.004820 -0.327651 2.123489 6.323590 -0.645814 11.477626 -0.025800 0.271300 5.450900 -75.689195 1.569401 22.291895 8.692826 -19.216424 -2.591594 -1.435092 -1.629301 -16.277166 -7.125000 0.000000 0.000000 76.500446 -3.156121 25.230755 -11.162526 22.878863 -3.276798 1.329688 0.323043 1.985532 7.125000 0.000000 0.000000 
-7.137773 17.823276 -4.105477 -60.917582 85.398149 -62.138760 -13.114983 1.010021 -18.325500 7.851258 16.765952 52.461413 -0.823758 5.157937 -0.558571 0.792300 -5.681900 -15.864300 30.212635 2.056958 -3.453660 -0.305636 -8.638649 23.665856 0.431803 -4.483321 -8.206567 -0.488200 -4.480000 12.431200 1.245305 -0.479816 -1.589337 -2.996005 -0.322339 2.136257 6.325490 -0.634541 11.451073 -0.024600 0.274200 5.426600 -75.711743 1.611190 22.193901 8.635269 -19.150258 -2.573368 -1.438819 -1.628271 -16.231238 -7.125000 0.000000 0.000000 76.511468 -3.213845 25.116555 -11.086576 22.794868 -3.250006 1.329232 0.320869 2.059624 7.125000 0.000000 0.000000 
-7.198716 17.833276 -4.109477 -60.288201 85.444444 -61.552160 -13.218403 1.312404 -17.575299 8.069634 16.871895 53.147181 -0.800856 5.045185 -0.287478 0.767500 -5.594300 -15.611600 30.124878 2.203683 -3.550906 -0.290354 -8.620060 23.592937 0.470921 -4.605404 -8.059773 -0.499100 -4.529200 12.570600 1.240977 -0.465080 -1.589091 -2.991741 -0.316673 2.149726 6.325804 -0.623410 11.425375 -0.023600 0.277000 5.401100 -75.730416 1.660165 22.116715 8.587163 -19.096141 -2.558007 -1.441351 -1.626885 -16.193576 -7.125000 0.000000 0.000000 76.526598 -3.270476 25.006048 -11.012774 22.713907 -3.224207 1.329518 0.321327 2.125530 7.125000 0.000000 0.000000 
-7.258711 17.844748 -4.113898 -59.621372 85.493654 -60.928846 -13.324333 1.631528 -16.770952 8.251938 16.948994 53.708424 -0.789308 4.979633 0.083325 0.742500 -5.504400 -15.353000 30.024899 2.348386 -3.622999 -0.269218 -8.587661 23.481142 0.517184 -4.751252 -7.895751 -0.507300 -4.565800 12.674100 1.235980 -0.451805 -1.588607 -2.989920 -0.311830 2.164411 6.324413 -0.612711 11.405857 -0.022900 0.279800 5.379400 -75.747273 1.708567 22.047372 8.543761 -19.047304 -2.543863 -1.442893 -1.625036 -16.155634 -7.125000 0.000000 0.000000 76.545517 -3.324295 24.900871 -10.940929 22.635518 -3.199478 1.330907 0.322767 2.186168 7.125000 0.000000 0.000000 
-7.318180 17.857063 -4.118950 -58.971810 85.547119 -60.319378 -13.429911 1.954963 -15.925149 8.398105 16.999952 54.149276 -0.782679 4.937834 0.538647 0.722800 -5.432500 -15.146400 29.914891 2.492241 -3.683880 -0.244198 -8.546446 23.344096 0.568406 -4.913794 -7.721214 -0.514100 -4.595700 12.758800 1.230683 -0.441235 -1.589011 -2.989078 -0.308260 2.177552 6.320775 -0.604844 11.393929 -0.023100 0.281700 5.362700 -75.762009 1.756419 21.990505 8.503470 -19.002169 -2.530633 -1.444065 -1.623183 -16.114208 -7.125000 0.000000 0.000000 76.567114 -3.379377 24.796098 -10.873704 22.562314 -3.176702 1.332363 0.325874 2.234160 7.125000 0.000000 0.000000 
-7.377439 17.869694 -4.124318 -58.457717 85.605623 -59.840057 -13.528950 2.264900 -15.045402 8.508177 17.027636 54.475615 -0.770257 4.877547 1.047958 0.711200 -5.389800 -15.023800 29.801807 2.631064 -3.747136 -0.217921 -8.501725 23.196929 0.620500 -5.080077 -7.545354 -0.519700 -4.620300 12.828600 1.225957 -0.437586 -1.589925 -2.987866 -0.308022 2.193274 6.316179 -0.596229 11.388736 -0.023800 0.284600 5.351400 -75.774148 1.795516 21.942552 8.463824 -18.957279 -2.517294 -1.444900 -1.620775 -16.071075 -7.125000 0.000000 0.000000 76.592410 -3.425446 24.690977 -10.803426 22.484727 -3.152844 1.335129 0.328493 2.291828 7.125000 0.000000 0.000000 
-7.436698 17.881903 -4.130107 -58.086828 85.669671 -59.492230 -13.620994 2.555290 -14.142161 8.581629 17.034082 54.692780 -0.740507 4.749896 1.584820 0.711500 -5.390800 -15.026700 29.686027 2.759452 -3.829121 -0.192200 -8.457719 23.051960 0.674958 -5.255541 -7.368437 -0.518900 -4.616600 12.818200 1.222128 -0.439751 -1.591863 -2.983874 -0.310715 2.212004 6.310177 -0.589591 11.393353 -0.025500 0.287200 5.348100 -75.788563 1.824611 21.902686 8.424888 -18.912849 -2.504203 -1.446498 -1.618669 -16.018793 -7.125000 0.000000 0.000000 76.617785 -3.467817 24.578178 -10.732445 22.405677 -3.128731 1.337124 0.328350 2.348943 7.125000 0.000000 0.000000 
-7.496693 17.893482 -4.136107 -57.995355 85.748804 -59.409401 -13.708454 2.810126 -13.229302 8.617736 17.021216 54.802348 -0.688021 4.530492 2.141849 0.726600 -5.446600 -15.186700 29.566545 2.876486 -3.942620 -0.168866 -8.418444 22.919990 0.730265 -5.435544 -7.196697 -0.514100 -4.595700 12.758900 1.219450 -0.453524 -1.595408 -2.975663 -0.319110 2.231798 6.303097 -0.584209 11.403313 -0.028100 0.289700 5.350800 -75.803805 1.838375 21.860164 8.384224 -18.865133 -2.490582 -1.448665 -1.616089 -15.959082 -7.125000 0.000000 0.000000 76.644279 -3.498684 24.458897 -10.661469 22.324616 -3.104483 1.339176 0.327701 2.402591 7.125000 0.000000 0.000000 
-7.556794 17.904112 -4.142843 -58.019312 85.826305 -59.433741 -13.784634 3.049325 -12.299404 8.615548 16.988190 54.805575 -0.603021 4.173662 2.710751 0.744000 -5.509800 -15.368400 29.448991 2.983557 -4.080075 -0.149098 -8.386809 22.809701 0.783180 -5.607842 -7.028070 -0.505400 -4.557100 12.649400 1.217297 -0.469334 -1.598211 -2.969096 -0.327989 2.261975 6.294681 -0.582256 11.417609 -0.031500 0.290800 5.357800 -75.819522 1.833595 21.823953 8.344134 -18.816916 -2.477190 -1.451852 -1.614140 -15.896601 -7.125000 0.000000 0.000000 76.671592 -3.514562 24.323935 -10.584297 22.235617 -3.078032 1.340630 0.324063 2.471331 7.125000 0.000000 0.000000 
-7.617000 17.913585 -4.150105 -58.035358 85.900688 -59.443141 -13.855781 3.283980 -11.356863 8.574590 16.934432 54.702230 -0.484336 3.670094 3.305685 0.770700 -5.605700 -15.644500 29.327669 3.085700 -4.241500 -0.133689 -8.365409 22.727989 0.831037 -5.762672 -6.861224 -0.495200 -4.511700 12.520900 1.215367 -0.482521 -1.600712 -2.962026 -0.335526 2.298706 6.283639 -0.582763 11.435896 -0.037200 0.291000 5.368900 -75.839945 1.814136 21.778970 8.302394 -18.765147 -2.463022 -1.454742 -1.611068 -15.827049 -7.125000 0.000000 0.000000 76.698564 -3.529431 24.185200 -10.513323 22.153751 -3.054238 1.341903 0.321098 2.536618 7.125000 0.000000 0.000000 
-7.677943 17.921900 -4.157894 -58.132660 85.976798 -59.523871 -13.919283 3.505955 -10.413633 8.494291 16.860800 54.491298 -0.332468 3.018240 3.965754 0.788000 -5.666900 -15.820900 29.204927 3.188053 -4.431907 -0.123513 -8.356380 22.680674 0.874502 -5.903232 -6.703940 -0.484400 -4.462900 12.382700 1.214028 -0.496873 -1.603349 -2.950536 -0.343567 2.339370 6.273578 -0.585663 11.455220 -0.042100 0.290000 5.380900 -75.863799 1.784333 21.737788 8.264436 -18.717481 -2.450190 -1.457528 -1.608442 -15.765731 -7.125000 0.000000 0.000000 76.723482 -3.535305 24.044182 -10.441534 22.070000 -3.030053 1.343227 0.318496 2.609698 7.125000 0.000000 0.000000 
-7.739727 17.928953 -4.165999 -58.241923 86.049926 -59.604935 -13.974707 3.723283 -9.475092 8.375278 16.766500 54.172941 -0.151948 2.232011 4.701924 0.800400 -5.710300 -15.946100 29.082071 3.297383 -4.652009 -0.119068 -8.361602 22.673275 0.908716 -6.013184 -6.562008 -0.478500 -4.436200 12.307300 1.213161 -0.510187 -1.606684 -2.934889 -0.351294 2.380103 6.263885 -0.588755 11.474419 -0.047200 0.289000 5.393000 -75.891843 1.747690 21.692705 8.230563 -18.674289 -2.438812 -1.459795 -1.605508 -15.711668 -7.125000 0.000000 0.000000 76.747244 -3.536645 23.908136 -10.374546 21.991070 -3.007710 1.344695 0.317578 2.673443 7.125000 0.000000 0.000000 
